<svg width="73" height="26" viewBox="0 0 73 26" fill="none" xmlns="http://www.w3.org/2000/svg">
<path d="M28.275 4.96C28.185 4.67 28.03 4.46 27.81 4.33C27.59 4.19 27.285 4.115 26.895 4.105L26.865 4.045L26.97 3.4C27.1 3.4 27.34 3.41 27.69 3.43C28.05 3.44 28.39 3.445 28.71 3.445C29.04 3.445 29.455 3.425 29.955 3.385C30.465 3.335 30.8 3.3 30.96 3.28L31.005 3.385L30.945 3.97C30.405 4.01 30.045 4.07 29.865 4.15C29.695 4.23 29.61 4.38 29.61 4.6C29.61 4.8 29.875 5.84 30.405 7.72C30.935 9.59 31.3 10.865 31.5 11.545H31.635C33.295 7.265 34.125 4.965 34.125 4.645C34.125 4.435 34.045 4.285 33.885 4.195C33.725 4.095 33.46 4.045 33.09 4.045H32.31L32.28 3.985L32.37 3.34C32.5 3.35 32.785 3.37 33.225 3.4C33.675 3.43 34.105 3.445 34.515 3.445C34.885 3.445 35.225 3.44 35.535 3.43C35.855 3.42 36.065 3.41 36.165 3.4L36.045 4.105C35.735 4.115 35.52 4.165 35.4 4.255C35.28 4.345 35.165 4.535 35.055 4.825L31.83 12.925L30.87 13.255C30.72 12.755 30.38 11.655 29.85 9.955C29.33 8.255 28.805 6.59 28.275 4.96ZM39.3503 11.425C39.3503 11.715 39.3753 11.92 39.4253 12.04C39.4753 12.15 39.5753 12.225 39.7253 12.265C39.8853 12.305 40.1553 12.325 40.5353 12.325C41.3753 12.325 41.9703 12.285 42.3203 12.205C42.6803 12.125 42.9353 11.965 43.0853 11.725C43.2353 11.485 43.3503 11.075 43.4303 10.495L44.0903 10.42L44.1353 10.495C44.1053 10.635 44.0453 10.96 43.9553 11.47C43.8653 11.97 43.7903 12.485 43.7303 13.015L43.6553 13.105C43.3153 13.095 42.6203 13.075 41.5703 13.045C40.5203 13.015 39.7003 13 39.1103 13C38.6403 13 38.2003 13.02 37.7903 13.06C37.3903 13.1 37.1353 13.13 37.0253 13.15L37.1153 12.46C37.5653 12.4 37.8703 12.285 38.0303 12.115C38.2003 11.935 38.2853 11.63 38.2853 11.2L38.3003 4.9C38.3003 4.58 38.2603 4.365 38.1803 4.255C38.1103 4.145 37.9653 4.09 37.7453 4.09C37.6453 4.09 37.5453 4.095 37.4453 4.105C37.3453 4.115 37.2753 4.12 37.2353 4.12L37.2053 4.06L37.3103 3.4C37.4403 3.41 37.7003 3.42 38.0903 3.43C38.4903 3.44 38.9253 3.445 39.3953 3.445C40.5853 3.445 41.5103 3.435 42.1703 3.415C42.8303 3.385 43.4053 3.335 43.8953 3.265L43.9403 3.355C43.9303 3.415 43.9003 3.56 43.8503 3.79C43.8103 4.01 43.7653 4.305 43.7153 4.675C43.6653 5.045 43.6253 5.435 43.5953 5.845L42.8753 5.905C42.8753 5.855 42.8803 5.77 42.8903 5.65C42.9003 5.52 42.9053 5.39 42.9053 5.26C42.9053 4.91 42.8603 4.67 42.7703 4.54C42.6803 4.4 42.4853 4.31 42.1853 4.27C41.8853 4.22 41.3603 4.195 40.6103 4.195C40.2603 4.195 40.0203 4.205 39.8903 4.225C39.7603 4.245 39.6753 4.295 39.6353 4.375C39.5953 4.445 39.5703 4.58 39.5603 4.78L39.4403 7.69L40.9853 7.705C41.2153 7.705 41.5403 7.685 41.9603 7.645C42.3903 7.595 42.6753 7.56 42.8153 7.54L42.8753 7.615L42.6653 8.5C42.5253 8.49 42.2503 8.48 41.8403 8.47C41.4403 8.46 41.0153 8.455 40.5653 8.455C40.1953 8.455 39.8103 8.49 39.4103 8.56C39.3703 10 39.3503 10.955 39.3503 11.425ZM53.3576 4.75C53.3576 4.32 53.1926 4.105 52.8626 4.105L52.2926 4.12L52.2626 4.06L52.3976 3.385C52.4976 3.395 52.6876 3.41 52.9676 3.43C53.2476 3.44 53.5326 3.445 53.8226 3.445C54.0826 3.445 54.3676 3.43 54.6776 3.4C54.9976 3.36 55.2076 3.335 55.3076 3.325L55.2326 4.015C54.8826 4.065 54.6276 4.165 54.4676 4.315C54.3076 4.455 54.2226 4.67 54.2126 4.96L54.0026 13.39L53.5676 13.6C52.6976 12.25 51.8476 10.965 51.0176 9.745C50.1976 8.515 49.5226 7.525 48.9926 6.775C48.4626 6.015 48.1276 5.535 47.9876 5.335H47.9126L47.8376 11.74C47.8376 11.96 47.8726 12.115 47.9426 12.205C48.0126 12.295 48.1326 12.34 48.3026 12.34L49.0676 12.325L49.0976 12.385L48.9626 13.06C48.8526 13.05 48.6276 13.035 48.2876 13.015C47.9476 13.005 47.6426 13 47.3726 13C47.1226 13 46.8476 13.015 46.5476 13.045C46.2576 13.085 46.0676 13.11 45.9776 13.12L46.0526 12.43C46.3626 12.39 46.5926 12.3 46.7426 12.16C46.8926 12.01 46.9726 11.785 46.9826 11.485L47.1776 4.93C47.1776 4.62 47.0826 4.4 46.8926 4.27C46.7126 4.14 46.3726 4.05 45.8726 4L45.8276 3.925L45.9476 3.37C46.0376 3.38 46.2326 3.395 46.5326 3.415C46.8326 3.435 47.0676 3.445 47.2376 3.445C47.4476 3.445 47.6526 3.44 47.8526 3.43C48.0526 3.41 48.1826 3.395 48.2426 3.385C48.9826 4.535 49.7226 5.66 50.4626 6.76C51.2126 7.86 51.8376 8.765 52.3376 9.475C52.8376 10.185 53.1526 10.635 53.2826 10.825H53.3576V4.75ZM58.5588 9.25C58.5588 10.24 58.7738 11 59.2038 11.53C59.6338 12.06 60.2538 12.325 61.0638 12.325C61.8838 12.325 62.5088 12.11 62.9388 11.68C63.3688 11.24 63.5838 10.61 63.5838 9.79C63.5738 8.99 63.5588 8.08 63.5388 7.06C63.5188 6.03 63.5038 5.31 63.4938 4.9C63.4738 4.55 63.4288 4.33 63.3588 4.24C63.2988 4.14 63.1588 4.09 62.9388 4.09C62.8188 4.09 62.6938 4.095 62.5638 4.105C62.4338 4.115 62.3438 4.12 62.2938 4.12L62.2638 4.06L62.3688 3.4C62.4888 3.41 62.7138 3.42 63.0438 3.43C63.3838 3.44 63.7238 3.445 64.0638 3.445C64.3338 3.445 64.6188 3.43 64.9188 3.4C65.2288 3.36 65.4288 3.33 65.5188 3.31L65.4588 3.985C65.1588 4.025 64.9338 4.075 64.7838 4.135C64.6438 4.185 64.5488 4.265 64.4988 4.375C64.4488 4.475 64.4238 4.63 64.4238 4.84V9.88C64.4238 10.93 64.0988 11.745 63.4488 12.325C62.7988 12.895 61.8838 13.18 60.7038 13.18C59.6538 13.18 58.8438 12.895 58.2738 12.325C57.7038 11.745 57.4188 10.925 57.4188 9.865V4.9C57.4188 4.58 57.3788 4.365 57.2988 4.255C57.2288 4.145 57.0838 4.09 56.8638 4.09C56.7638 4.09 56.6638 4.095 56.5638 4.105C56.4638 4.115 56.3938 4.12 56.3538 4.12L56.3238 4.06L56.4288 3.4C56.5488 3.41 56.7738 3.42 57.1038 3.43C57.4438 3.44 57.7838 3.445 58.1238 3.445C58.3938 3.445 58.6988 3.43 59.0388 3.4C59.3788 3.36 59.5988 3.33 59.6988 3.31L59.6388 3.985C59.2688 4.035 59.0188 4.12 58.8888 4.24C58.7688 4.35 58.6988 4.55 58.6788 4.84L58.5588 9.25ZM69.2938 13.18C68.8738 13.18 68.4888 13.14 68.1388 13.06C67.7888 12.99 67.4988 12.91 67.2688 12.82C67.0488 12.73 66.9388 12.68 66.9388 12.67L66.8638 12.52C66.8738 12.46 66.8938 12.31 66.9238 12.07C66.9538 11.83 66.9788 11.52 66.9988 11.14C67.0288 10.75 67.0438 10.34 67.0438 9.91L67.7188 9.835C67.7188 10.585 67.7688 11.14 67.8688 11.5C67.9688 11.86 68.1538 12.11 68.4238 12.25C68.6938 12.38 69.1088 12.445 69.6688 12.445C70.2988 12.445 70.8038 12.3 71.1838 12.01C71.5638 11.71 71.7538 11.305 71.7538 10.795C71.7538 10.495 71.6488 10.225 71.4388 9.985C71.2388 9.745 70.9988 9.54 70.7188 9.37C70.4388 9.2 70.0238 8.97 69.4738 8.68C68.9538 8.41 68.5288 8.165 68.1988 7.945C67.8688 7.715 67.5888 7.445 67.3588 7.135C67.1388 6.825 67.0288 6.465 67.0288 6.055C67.0288 5.535 67.1788 5.065 67.4788 4.645C67.7888 4.215 68.2038 3.88 68.7238 3.64C69.2538 3.39 69.8388 3.265 70.4788 3.265C70.8788 3.265 71.2488 3.295 71.5888 3.355C71.9288 3.405 72.1988 3.46 72.3988 3.52C72.5988 3.58 72.7238 3.62 72.7738 3.64L72.8188 3.73C72.8088 3.79 72.7838 3.93 72.7438 4.15C72.7038 4.37 72.6588 4.675 72.6088 5.065C72.5588 5.455 72.5188 5.855 72.4888 6.265L71.9038 6.325L71.8138 6.25C71.8238 6.21 71.8338 6.12 71.8438 5.98C71.8538 5.83 71.8588 5.66 71.8588 5.47C71.8588 4.94 71.7288 4.575 71.4688 4.375C71.2088 4.175 70.7438 4.075 70.0738 4.075C69.5238 4.075 69.0688 4.215 68.7088 4.495C68.3588 4.765 68.1838 5.105 68.1838 5.515C68.1838 5.915 68.3538 6.265 68.6938 6.565C69.0438 6.855 69.5538 7.175 70.2238 7.525C70.8738 7.855 71.3688 8.13 71.7088 8.35C72.0488 8.56 72.3488 8.825 72.6088 9.145C72.8688 9.465 72.9988 9.835 72.9988 10.255C72.9988 10.815 72.8388 11.32 72.5188 11.77C72.2088 12.21 71.7738 12.555 71.2138 12.805C70.6538 13.055 70.0138 13.18 69.2938 13.18Z" fill="#552B2B"/>
<path d="M45.965 16.705C45.975 16.725 45.985 16.74 45.995 16.75C46.005 16.75 46.01 16.76 46.01 16.78C46.01 16.84 45.885 16.955 45.635 17.125C45.385 17.285 45.075 17.47 44.705 17.68C44.335 17.88 43.945 18.085 43.535 18.295C43.125 18.495 42.76 18.66 42.44 18.79C42.44 18.81 42.43 18.875 42.41 18.985C42.39 19.095 42.38 19.165 42.38 19.195V19.48C42.38 19.71 42.415 19.94 42.485 20.17C42.555 20.39 42.66 20.59 42.8 20.77C42.95 20.95 43.13 21.095 43.34 21.205C43.55 21.315 43.795 21.37 44.075 21.37C44.195 21.37 44.34 21.35 44.51 21.31C44.69 21.26 44.86 21.195 45.02 21.115C45.19 21.025 45.34 20.92 45.47 20.8C45.6 20.68 45.68 20.545 45.71 20.395C45.83 20.405 45.9 20.44 45.92 20.5C45.95 20.56 45.965 20.6 45.965 20.62C45.965 20.88 45.9 21.105 45.77 21.295C45.65 21.475 45.495 21.625 45.305 21.745C45.125 21.855 44.93 21.94 44.72 22C44.52 22.05 44.34 22.075 44.18 22.075C43.32 22.075 42.695 21.835 42.305 21.355C41.915 20.875 41.72 20.245 41.72 19.465C41.72 19.425 41.73 19.335 41.75 19.195C41.77 19.055 41.78 18.96 41.78 18.91C41.78 18.9 41.76 18.89 41.72 18.88C41.68 18.86 41.635 18.84 41.585 18.82C41.545 18.8 41.505 18.77 41.465 18.73C41.435 18.68 41.42 18.615 41.42 18.535C41.42 18.455 41.45 18.39 41.51 18.34C41.57 18.29 41.64 18.245 41.72 18.205L41.87 18.115C41.96 17.735 42.065 17.37 42.185 17.02C42.315 16.66 42.475 16.3 42.665 15.94C42.585 15.94 42.5 15.93 42.41 15.91C42.32 15.89 42.275 15.82 42.275 15.7C42.275 15.56 42.355 15.405 42.515 15.235C42.685 15.065 42.875 14.905 43.085 14.755C43.305 14.605 43.52 14.48 43.73 14.38C43.94 14.27 44.09 14.215 44.18 14.215C44.22 14.215 44.245 14.225 44.255 14.245C44.275 14.255 44.305 14.26 44.345 14.26C44.425 14.26 44.525 14.245 44.645 14.215C44.775 14.185 44.91 14.15 45.05 14.11C45.19 14.07 45.32 14.035 45.44 14.005C45.57 13.975 45.675 13.96 45.755 13.96C45.845 13.96 45.91 13.99 45.95 14.05C46 14.11 46.025 14.175 46.025 14.245C46.025 14.325 45.975 14.385 45.875 14.425C45.775 14.455 45.685 14.48 45.605 14.5C45.325 14.55 45.03 14.64 44.72 14.77C44.42 14.89 44.14 15.025 43.88 15.175C43.78 15.285 43.66 15.445 43.52 15.655C43.38 15.855 43.245 16.085 43.115 16.345C42.985 16.605 42.865 16.875 42.755 17.155C42.655 17.435 42.59 17.7 42.56 17.95L42.815 17.83C43.585 17.46 44.21 17.17 44.69 16.96C45.18 16.75 45.56 16.645 45.83 16.645C45.88 16.645 45.925 16.665 45.965 16.705ZM50.0471 16.72C50.0471 16.75 50.0221 16.88 49.9721 17.11C49.9221 17.34 49.8721 17.6 49.8221 17.89C49.7921 18.06 49.7421 18.315 49.6721 18.655C49.6121 18.985 49.5821 19.49 49.5821 20.17C49.5821 20.19 49.5771 20.245 49.5671 20.335C49.5671 20.415 49.5521 20.5 49.5221 20.59C49.5021 20.68 49.4671 20.765 49.4171 20.845C49.3671 20.915 49.2921 20.95 49.1921 20.95C49.1021 20.95 49.0021 20.91 48.8921 20.83C48.6421 20.65 48.4121 20.44 48.2021 20.2C47.9921 19.96 47.8121 19.7 47.6621 19.42C47.5121 19.13 47.3971 18.83 47.3171 18.52C47.2371 18.21 47.1971 17.895 47.1971 17.575C47.1971 17.535 47.2221 17.5 47.2721 17.47C47.3321 17.43 47.3771 17.41 47.4071 17.41C47.5571 17.41 47.6721 17.495 47.7521 17.665C47.8421 17.835 47.9271 18.04 48.0071 18.28C48.0971 18.52 48.1971 18.775 48.3071 19.045C48.4271 19.305 48.6021 19.53 48.8321 19.72C48.8621 19.68 48.8871 19.605 48.9071 19.495C48.9271 19.385 48.9421 19.29 48.9521 19.21C48.9621 19.14 48.9771 19.005 48.9971 18.805C49.0171 18.595 49.0371 18.375 49.0571 18.145C49.0871 17.915 49.1071 17.695 49.1171 17.485C49.1371 17.275 49.1471 17.13 49.1471 17.05C49.1471 16.99 49.1521 16.92 49.1621 16.84C49.1721 16.76 49.1921 16.685 49.2221 16.615C49.2621 16.545 49.3121 16.485 49.3721 16.435C49.4321 16.385 49.5121 16.36 49.6121 16.36C49.6621 16.36 49.7471 16.395 49.8671 16.465C49.9871 16.525 50.0471 16.61 50.0471 16.72ZM55.5405 20.425C55.5505 20.445 55.5555 20.475 55.5555 20.515C55.5555 20.575 55.5105 20.665 55.4205 20.785C55.3905 20.825 55.3255 20.89 55.2255 20.98C55.1255 21.07 54.9905 21.16 54.8205 21.25C54.6505 21.34 54.4405 21.42 54.1905 21.49C53.9505 21.56 53.6655 21.595 53.3355 21.595C53.1055 21.595 52.8805 21.545 52.6605 21.445C52.4405 21.335 52.2455 21.18 52.0755 20.98C51.9055 20.77 51.7655 20.515 51.6555 20.215C51.5455 19.905 51.4905 19.545 51.4905 19.135C51.4905 18.745 51.5405 18.38 51.6405 18.04C51.7405 17.7 51.8655 17.4 52.0155 17.14C52.1755 16.88 52.3505 16.675 52.5405 16.525C52.7305 16.375 52.9155 16.3 53.0955 16.3C53.2555 16.3 53.4155 16.335 53.5755 16.405C53.7455 16.465 53.8955 16.545 54.0255 16.645C54.1655 16.745 54.2755 16.86 54.3555 16.99C54.4355 17.11 54.4755 17.235 54.4755 17.365C54.4755 17.515 54.4055 17.67 54.2655 17.83C54.1355 17.99 53.9755 18.14 53.7855 18.28C53.5955 18.41 53.4055 18.52 53.2155 18.61C53.0255 18.69 52.8755 18.73 52.7655 18.73C52.7055 18.73 52.6505 18.705 52.6005 18.655C52.5605 18.595 52.5405 18.525 52.5405 18.445C52.5405 18.305 52.6005 18.195 52.7205 18.115C52.8505 18.035 52.9905 17.965 53.1405 17.905C53.2905 17.835 53.4255 17.755 53.5455 17.665C53.6755 17.575 53.7405 17.45 53.7405 17.29C53.7405 17.27 53.7155 17.22 53.6655 17.14C53.6155 17.06 53.4805 17.02 53.2605 17.02C53.1605 17.02 53.0455 17.08 52.9155 17.2C52.7855 17.31 52.6605 17.465 52.5405 17.665C52.4205 17.855 52.3205 18.085 52.2405 18.355C52.1605 18.615 52.1205 18.9 52.1205 19.21C52.1205 19.47 52.1655 19.705 52.2555 19.915C52.3555 20.125 52.4805 20.305 52.6305 20.455C52.7805 20.595 52.9555 20.705 53.1555 20.785C53.3555 20.865 53.5605 20.905 53.7705 20.905C53.9205 20.905 54.0805 20.875 54.2505 20.815C54.4305 20.745 54.5955 20.675 54.7455 20.605C54.9055 20.525 55.0405 20.455 55.1505 20.395C55.2705 20.325 55.3455 20.29 55.3755 20.29C55.4055 20.29 55.4355 20.305 55.4655 20.335C55.5055 20.365 55.5305 20.395 55.5405 20.425ZM61.1 20.155C61.1 20.215 61.08 20.275 61.04 20.335C61 20.395 60.95 20.45 60.89 20.5C60.84 20.55 60.78 20.595 60.71 20.635C60.65 20.665 60.595 20.68 60.545 20.68C60.375 20.68 60.155 20.645 59.885 20.575C59.625 20.495 59.415 20.375 59.255 20.215C59.085 20.045 58.935 19.845 58.805 19.615C58.675 19.375 58.53 19.025 58.37 18.565C58.26 19.005 58.13 19.44 57.98 19.87C57.84 20.3 57.61 20.695 57.29 21.055C57.27 21.075 57.24 21.085 57.2 21.085C57.13 21.085 57.055 21.05 56.975 20.98C56.895 20.91 56.855 20.84 56.855 20.77C56.855 20.7 56.845 20.54 56.825 20.29C56.815 20.03 56.8 19.745 56.78 19.435C56.76 19.115 56.74 18.795 56.72 18.475C56.71 18.145 56.705 17.875 56.705 17.665C56.705 17.565 56.71 17.435 56.72 17.275C56.73 17.105 56.76 16.96 56.81 16.84C56.82 16.82 56.855 16.78 56.915 16.72C56.985 16.66 57.06 16.63 57.14 16.63C57.21 16.63 57.25 16.675 57.26 16.765C57.27 16.855 57.275 16.955 57.275 17.065V19.435C57.275 19.485 57.28 19.555 57.29 19.645C57.31 19.735 57.335 19.8 57.365 19.84C57.475 19.6 57.575 19.32 57.665 19C57.765 18.67 57.86 18.36 57.95 18.07C58.04 17.77 58.13 17.52 58.22 17.32C58.31 17.11 58.4 17.005 58.49 17.005C58.59 17.005 58.67 17.025 58.73 17.065C58.79 17.105 58.84 17.185 58.88 17.305C58.93 17.595 58.97 17.855 59 18.085C59.03 18.305 59.065 18.505 59.105 18.685C59.155 18.865 59.22 19.035 59.3 19.195C59.39 19.345 59.51 19.485 59.66 19.615C59.8 19.745 59.955 19.84 60.125 19.9C60.305 19.96 60.46 19.99 60.59 19.99C60.65 19.99 60.715 19.98 60.785 19.96C60.855 19.93 60.905 19.915 60.935 19.915C60.975 19.915 61.01 19.95 61.04 20.02C61.08 20.09 61.1 20.135 61.1 20.155ZM65.8484 15.22C65.7184 15.37 65.5334 15.52 65.2934 15.67C65.0534 15.81 64.8134 15.94 64.5734 16.06C64.3334 16.18 64.1234 16.285 63.9434 16.375C63.7634 16.455 63.6734 16.51 63.6734 16.54C63.6734 16.57 63.6934 16.66 63.7334 16.81C63.7734 16.96 63.8184 17.14 63.8684 17.35C63.9284 17.55 63.9884 17.76 64.0484 17.98C64.1084 18.2 64.1584 18.395 64.1984 18.565C64.2184 18.665 64.2434 18.795 64.2734 18.955C64.3034 19.115 64.3284 19.275 64.3484 19.435C64.3784 19.595 64.4034 19.74 64.4234 19.87C64.4434 19.99 64.4534 20.055 64.4534 20.065C64.4534 20.215 64.4284 20.37 64.3784 20.53C64.3284 20.69 64.2484 20.77 64.1384 20.77C64.0784 20.77 64.0234 20.745 63.9734 20.695C63.9234 20.645 63.8784 20.59 63.8384 20.53C63.7984 20.46 63.7684 20.395 63.7484 20.335C63.7284 20.275 63.7184 20.23 63.7184 20.2C63.7184 20.18 63.7184 20.15 63.7184 20.11C63.7284 20.07 63.7334 20.025 63.7334 19.975C63.7334 19.785 63.7034 19.51 63.6434 19.15C63.6234 19.04 63.5834 18.87 63.5234 18.64C63.4634 18.41 63.4034 18.175 63.3434 17.935C63.2734 17.655 63.1934 17.35 63.1034 17.02C63.0634 16.88 63.0384 16.81 63.0284 16.81C62.9584 16.81 62.8384 16.855 62.6684 16.945C62.5084 17.025 62.3234 17.13 62.1134 17.26C61.9034 17.38 61.6834 17.515 61.4534 17.665C61.2234 17.805 61.0084 17.94 60.8084 18.07C60.6084 18.19 60.4384 18.295 60.2984 18.385C60.1484 18.465 60.0584 18.505 60.0284 18.505C59.8984 18.505 59.7934 18.46 59.7134 18.37C59.6334 18.28 59.5934 18.18 59.5934 18.07C59.5934 18.01 59.6784 17.925 59.8484 17.815C60.0084 17.695 60.2134 17.565 60.4634 17.425C60.7034 17.285 60.9684 17.14 61.2584 16.99C61.5384 16.84 61.7984 16.705 62.0384 16.585C62.2884 16.465 62.4934 16.365 62.6534 16.285C62.8234 16.205 62.9084 16.165 62.9084 16.165C62.8184 15.705 62.7434 15.295 62.6834 14.935C62.6334 14.625 62.5834 14.34 62.5334 14.08C62.4934 13.82 62.4734 13.68 62.4734 13.66C62.4734 13.53 62.4984 13.435 62.5484 13.375C62.6084 13.305 62.6734 13.27 62.7434 13.27C62.8534 13.27 62.9234 13.345 62.9534 13.495C63.0634 14.035 63.1634 14.515 63.2534 14.935C63.3534 15.355 63.4484 15.695 63.5384 15.955C63.6284 15.935 63.7834 15.88 64.0034 15.79C64.2234 15.69 64.4534 15.585 64.6934 15.475C64.9334 15.365 65.1484 15.27 65.3384 15.19C65.5384 15.1 65.6534 15.055 65.6834 15.055C65.7434 15.055 65.7784 15.075 65.7884 15.115C65.8084 15.155 65.8284 15.19 65.8484 15.22ZM70.0385 20.02C70.0385 20.19 69.9785 20.34 69.8585 20.47C69.7485 20.59 69.6035 20.695 69.4235 20.785C69.2535 20.865 69.0635 20.93 68.8535 20.98C68.6435 21.03 68.4435 21.07 68.2535 21.1C68.0635 21.12 67.8935 21.135 67.7435 21.145C67.6035 21.145 67.5135 21.145 67.4735 21.145C67.2535 21.145 67.0835 21.11 66.9635 21.04C66.8435 20.97 66.7835 20.845 66.7835 20.665C66.7835 20.605 66.7885 20.555 66.7985 20.515C66.8085 20.465 66.8485 20.44 66.9185 20.44C66.9485 20.44 66.9985 20.45 67.0685 20.47C67.1385 20.48 67.1935 20.485 67.2335 20.485C67.2735 20.485 67.3985 20.48 67.6085 20.47C67.8285 20.45 68.0585 20.42 68.2985 20.38C68.5485 20.34 68.7685 20.285 68.9585 20.215C69.1585 20.135 69.2585 20.035 69.2585 19.915C69.2585 19.895 69.1535 19.835 68.9435 19.735C68.7435 19.625 68.4385 19.445 68.0285 19.195C67.7085 18.995 67.4835 18.795 67.3535 18.595C67.2235 18.385 67.1585 18.105 67.1585 17.755C67.1585 17.535 67.2035 17.355 67.2935 17.215C67.3935 17.075 67.5235 16.965 67.6835 16.885C67.8535 16.805 68.0435 16.75 68.2535 16.72C68.4735 16.68 68.7035 16.66 68.9435 16.66C68.9635 16.66 69.0235 16.67 69.1235 16.69C69.2335 16.71 69.3485 16.745 69.4685 16.795C69.5885 16.835 69.6935 16.89 69.7835 16.96C69.8835 17.02 69.9335 17.09 69.9335 17.17C69.9335 17.19 69.9135 17.22 69.8735 17.26C69.8435 17.3 69.7885 17.375 69.7085 17.485C69.6785 17.475 69.6235 17.46 69.5435 17.44C69.4735 17.42 69.3885 17.4 69.2885 17.38C69.1985 17.35 69.1035 17.33 69.0035 17.32C68.9035 17.3 68.8235 17.29 68.7635 17.29C68.5035 17.29 68.2935 17.34 68.1335 17.44C67.9735 17.53 67.8935 17.71 67.8935 17.98C67.8935 18.11 67.9435 18.23 68.0435 18.34C68.1535 18.45 68.2885 18.555 68.4485 18.655C68.6085 18.745 68.7785 18.84 68.9585 18.94C69.1485 19.03 69.3235 19.13 69.4835 19.24C69.6435 19.35 69.7735 19.47 69.8735 19.6C69.9835 19.72 70.0385 19.86 70.0385 20.02Z" fill="#B92C2C"/>
<ellipse cx="12.5" cy="13" rx="12.5" ry="13" fill="#B92C2C"/>
<path d="M18.7075 9.81201C18.7075 9.90479 18.6782 9.98535 18.6196 10.0537C18.5659 10.1221 18.4951 10.1685 18.4072 10.1929C18.1582 10.2515 17.9238 10.2979 17.7041 10.332C17.4844 10.3613 17.2671 10.3833 17.0522 10.3979C16.8423 11.3354 16.5811 12.2412 16.2686 13.1152C15.9561 13.9893 15.6045 14.8389 15.2139 15.6641C14.8281 16.4893 14.4058 17.2925 13.9468 18.0737C13.4927 18.855 13.019 19.6216 12.5259 20.3735C12.4868 20.4272 12.438 20.4688 12.3794 20.498C12.3257 20.5273 12.2695 20.5469 12.2109 20.5566C12.0791 20.5566 11.9741 20.5054 11.896 20.4028C10.8608 19.0845 9.97461 17.5977 9.2373 15.9424C8.50488 14.2822 7.90186 12.4243 7.42822 10.3687C7.18408 10.3442 6.93994 10.3198 6.6958 10.2954C6.45166 10.271 6.20996 10.2368 5.9707 10.1929C5.87305 10.1782 5.79492 10.1367 5.73633 10.0684C5.67285 9.99512 5.64111 9.90967 5.64111 9.81201C5.64111 9.69482 5.68506 9.60205 5.77295 9.53369C5.86084 9.46045 5.94629 9.42383 6.0293 9.42383C6.03906 9.42383 6.04639 9.42627 6.05127 9.43115C6.06104 9.43604 6.07324 9.43848 6.08789 9.43848C6.53223 9.50684 6.96924 9.56055 7.39893 9.59961C7.8335 9.63379 8.26318 9.65088 8.68799 9.65088C9.11768 9.65088 9.5376 9.63379 9.94775 9.59961C10.3579 9.56055 10.7681 9.50684 11.1782 9.43848C11.1929 9.43848 11.2051 9.43604 11.2148 9.43115C11.2246 9.42627 11.2368 9.42383 11.2515 9.42383C11.3638 9.42383 11.4541 9.46533 11.5225 9.54834C11.5908 9.62646 11.625 9.71436 11.625 9.81201C11.625 9.90479 11.5957 9.98779 11.5371 10.061C11.4785 10.1343 11.4028 10.1782 11.3101 10.1929C11.105 10.2319 10.8999 10.2637 10.6948 10.2881C10.4946 10.3076 10.2896 10.3296 10.0796 10.354C10.2456 11.0181 10.4287 11.6797 10.6289 12.3389C10.8291 12.998 11.0537 13.645 11.3027 14.2798C11.5518 14.9146 11.8301 15.5371 12.1377 16.1475C12.4453 16.7529 12.7896 17.3364 13.1704 17.8979C13.561 17.2437 13.915 16.5991 14.2324 15.9644C14.5547 15.3296 14.8428 14.7021 15.0967 14.082C15.3506 13.4619 15.5728 12.8467 15.7632 12.2363C15.9585 11.6211 16.1245 11.0083 16.2612 10.3979C16.0317 10.3833 15.7998 10.3613 15.5654 10.332C15.3311 10.2979 15.0771 10.2515 14.8037 10.1929C14.7158 10.1782 14.6401 10.1343 14.5767 10.061C14.5181 9.98779 14.4888 9.90479 14.4888 9.81201C14.4888 9.70947 14.5278 9.61914 14.606 9.54102C14.689 9.46289 14.7793 9.42383 14.877 9.42383C14.8965 9.42383 14.9111 9.42627 14.9209 9.43115C14.9355 9.43604 14.9478 9.43848 14.9575 9.43848C15.2798 9.50684 15.5752 9.56055 15.8438 9.59961C16.1123 9.63379 16.376 9.65088 16.6348 9.65088C16.8936 9.65088 17.1499 9.63379 17.4038 9.59961C17.6577 9.56055 17.9312 9.50684 18.2241 9.43848C18.2388 9.43848 18.2534 9.43604 18.2681 9.43115C18.2827 9.42627 18.2974 9.42383 18.312 9.42383C18.4194 9.42383 18.5122 9.46533 18.5903 9.54834C18.6685 9.62646 18.7075 9.71436 18.7075 9.81201Z" fill="black"/>
<path d="M17.2144 18.9077C17.2075 18.9533 17.187 18.9897 17.1528 19.0171C17.1187 19.0467 17.0788 19.0615 17.0332 19.0615H17.0264C16.4134 19.0205 15.8153 19 15.2319 19C14.6395 19 14.0687 19.0205 13.5195 19.0615H13.5024C13.45 19.057 13.4067 19.0387 13.3726 19.0068C13.3384 18.9749 13.3213 18.9328 13.3213 18.8804C13.3213 18.8348 13.3372 18.7961 13.3691 18.7642C13.401 18.73 13.4409 18.7106 13.4888 18.7061C13.5617 18.6992 13.6346 18.6947 13.7075 18.6924C13.7827 18.6878 13.8568 18.6833 13.9297 18.6787V14.5122C13.8568 14.5076 13.7839 14.5054 13.7109 14.5054C13.6403 14.5054 13.5685 14.5054 13.4956 14.5054C13.4478 14.5008 13.4067 14.4826 13.3726 14.4507C13.3384 14.4165 13.3213 14.3743 13.3213 14.3242C13.3213 14.2741 13.3395 14.2319 13.376 14.1978C13.4124 14.1613 13.4546 14.1431 13.5024 14.1431C13.589 14.1476 13.6722 14.1499 13.752 14.1499C13.834 14.1499 13.9149 14.1499 13.9946 14.1499C14.48 14.1499 14.9608 14.134 15.437 14.1021C15.9132 14.0701 16.3883 14.0223 16.8623 13.9585H16.8931C16.9386 13.9585 16.9774 13.9744 17.0093 14.0063C17.0412 14.036 17.0605 14.0713 17.0674 14.1123L17.2144 15.2676V15.2915C17.2144 15.3439 17.195 15.3861 17.1562 15.418C17.1198 15.4499 17.0788 15.4658 17.0332 15.4658C16.9899 15.4658 16.9512 15.4521 16.917 15.4248C16.8851 15.3952 16.8646 15.3576 16.8555 15.312L16.7324 14.3379C16.4681 14.3743 16.2026 14.404 15.936 14.4268C15.6717 14.4473 15.4051 14.4644 15.1362 14.478V16.7305C15.1909 16.7282 15.2638 16.7248 15.355 16.7202C15.4461 16.7157 15.5441 16.7088 15.6489 16.6997C15.756 16.6906 15.8643 16.6803 15.9736 16.6689C16.0853 16.6553 16.189 16.6393 16.2847 16.6211H16.3188C16.3667 16.6211 16.4089 16.6393 16.4453 16.6758C16.4818 16.71 16.5 16.7498 16.5 16.7954C16.5 16.841 16.4863 16.8797 16.459 16.9116C16.4316 16.9435 16.3963 16.9652 16.353 16.9766C16.2482 16.9971 16.1354 17.0142 16.0146 17.0278C15.8962 17.0415 15.7799 17.0529 15.666 17.062C15.5544 17.0688 15.4518 17.0745 15.3584 17.0791C15.265 17.0837 15.1909 17.0871 15.1362 17.0894V18.6445H15.2319C15.5031 18.6445 15.7754 18.6479 16.0488 18.6548C16.3245 18.6616 16.6014 18.6742 16.8794 18.6924L17.0024 17.7764C17.0116 17.7308 17.0321 17.6943 17.064 17.667C17.0981 17.6374 17.1369 17.6226 17.1802 17.6226C17.2349 17.6226 17.2782 17.6419 17.3101 17.6807C17.3442 17.7194 17.3613 17.7581 17.3613 17.7969V17.8242L17.2144 18.9077Z" fill="white"/>
</svg>
